<?xml version="1.0" encoding="UTF-8"?>
<svg width="128" height="128" version="1.1" viewBox="0 0 128 128" xmlns="http://www.w3.org/2000/svg">
  <defs>
    <linearGradient id="cloudGradient" x1="0%" y1="0%" x2="0%" y2="100%">
      <stop offset="0%" style="stop-color:#0078d4;stop-opacity:1" />
      <stop offset="100%" style="stop-color:#005a9e;stop-opacity:1" />
    </linearGradient>
    <linearGradient id="syncGradient" x1="0%" y1="0%" x2="0%" y2="100%">
      <stop offset="0%" style="stop-color:#50e6ff;stop-opacity:1" />
      <stop offset="100%" style="stop-color:#0078d4;stop-opacity:1" />
    </linearGradient>
  </defs>
  
  <!-- Background circle -->
  <circle cx="64" cy="64" r="60" fill="url(#cloudGradient)" opacity="0.1"/>
  
  <!-- Cloud shape -->
  <path d="M 38,68 
           C 38,60 44,54 52,54 
           C 54,46 60,40 68,40 
           C 76,40 82,46 84,54 
           C 92,54 98,60 98,68 
           C 98,76 92,82 84,82 
           L 52,82 
           C 44,82 38,76 38,68 Z" 
        fill="url(#cloudGradient)" 
        stroke="#005a9e" 
        stroke-width="2"/>
  
  <!-- Sync arrows -->
  <!-- Up arrow -->
  <path d="M 64,95 L 64,75 M 64,75 L 58,81 M 64,75 L 70,81" 
        stroke="url(#syncGradient)" 
        stroke-width="4" 
        stroke-linecap="round" 
        stroke-linejoin="round" 
        fill="none"/>
  
  <!-- Down arrow -->
  <path d="M 48,33 L 48,53 M 48,53 L 42,47 M 48,53 L 54,47" 
        stroke="#50e6ff" 
        stroke-width="4" 
        stroke-linecap="round" 
        stroke-linejoin="round" 
        fill="none"/>
  
  <!-- Checkmark overlay (subtle) -->
  <path d="M 72,60 L 76,64 L 84,52" 
        stroke="#00cc6a" 
        stroke-width="3" 
        stroke-linecap="round" 
        stroke-linejoin="round" 
        fill="none"
        opacity="0.8"/>
</svg>
