<?xml version="1.0" encoding="UTF-8" standalone="no"?>
<svg
   width="128"
   height="128"
   version="1.1"
   viewBox="0 0 128 128"
   id="svg78"
   sodipodi:docname="odsc.svg"
   inkscape:version="1.2.2 (b0a8486541, 2022-12-01)"
   inkscape:export-filename="odsc.png"
   inkscape:export-xdpi="96"
   inkscape:export-ydpi="96"
   xml:space="preserve"
   xmlns:inkscape="http://www.inkscape.org/namespaces/inkscape"
   xmlns:sodipodi="http://sodipodi.sourceforge.net/DTD/sodipodi-0.dtd"
   xmlns="http://www.w3.org/2000/svg"
   xmlns:svg="http://www.w3.org/2000/svg"><sodipodi:namedview
     id="namedview80"
     pagecolor="#ffffff"
     bordercolor="#000000"
     borderopacity="0.25"
     inkscape:showpageshadow="2"
     inkscape:pageopacity="0.0"
     inkscape:pagecheckerboard="0"
     inkscape:deskcolor="#d1d1d1"
     showgrid="false"
     inkscape:zoom="6.1328125"
     inkscape:cx="75.821656"
     inkscape:cy="53.808917"
     inkscape:window-width="1861"
     inkscape:window-height="1010"
     inkscape:window-x="0"
     inkscape:window-y="0"
     inkscape:window-maximized="1"
     inkscape:current-layer="svg78" /><defs
     id="defs68"><linearGradient
       id="cloudGradient"
       x1="15.997396"
       y1="19.081231"
       x2="15.997396"
       y2="115.0656"
       gradientTransform="matrix(1.1564382,0,0,0.86472409,-9.9999991,0.48917197)"
       gradientUnits="userSpaceOnUse"><stop
         offset="0%"
         style="stop-color:#0078d4;stop-opacity:1"
         id="stop58" /><stop
         offset="100%"
         style="stop-color:#005a9e;stop-opacity:1"
         id="stop60" /></linearGradient><linearGradient
       id="syncGradient"
       x1="71.778505"
       y1="72.23611"
       x2="71.778505"
       y2="102.83023"
       gradientTransform="matrix(0.84983659,0,0,1.1766968,17.034395,-26.843311)"
       gradientUnits="userSpaceOnUse"><stop
         offset="0%"
         style="stop-color:#50e6ff;stop-opacity:1"
         id="stop63" /><stop
         offset="100%"
         style="stop-color:#0078d4;stop-opacity:1"
         id="stop65" /></linearGradient><inkscape:path-effect
       effect="fill_between_many"
       method="originald"
       linkedpaths="#path525,0,1"
       id="path-effect1012"
       is_visible="true"
       lpeversion="0"
       join="true"
       close="true"
       autoreverse="true" /></defs><!-- Cloud shape - scaled up and centered --><path
     d="m 10.000002,70.489172 c 0,-16 11.999999,-28 25.999999,-28 4,-14 14,-24 27.999999,-24 14,0 24,10 28,24 14,0 26,12 26,28 0,16 -12,28 -26,28 H 36 c -14,0 -25.999998,-12 -25.999998,-28 z"
     fill="url(#cloudGradient)"
     stroke="#005a9e"
     stroke-width="3"
     id="path70"
     style="fill:url(#cloudGradient)" /><!-- Sync arrows - larger and more prominent --><!-- Up arrow --><!-- Down arrow --><!-- Checkmark overlay - larger and more visible --><g
     id="g1077"
     transform="matrix(0.08666357,0,0,0.08666357,58.084607,56.762757)"><path
       inkscape:original-d="M 0,0"
       inkscape:path-effect="#path-effect1012"
       d="m 141.14442,254.42536 c -6.05909,-1.13997 -11.018,-4.87508 -13.76186,-10.3656 l -0.94866,-1.89828 -2.8312,-0.66805 c -5.60613,-1.32282 -14.43974,-1.86288 -24.130153,-1.47524 -12.804386,0.51221 -16.412233,1.40483 -19.539158,4.83424 -4.15879,4.56109 -7.143933,6.72492 -10.887924,7.89231 -1.666396,0.51959 -2.535537,0.61659 -5.423958,0.60537 -5.265415,-0.0205 -7.819273,-0.79099 -17.065624,-5.14896 -7.30862,-3.44468 -8.927989,-3.94713 -16.139583,-5.00773 -12.402859,-1.82409 -16.96576,-3.28715 -20.249101,-6.49272 -3.8650783,-3.77352 -4.2835142,-8.6613 -1.2789695,-14.93976 2.3807475,-4.97496 2.5151475,-6.10901 1.7795665,-15.01591 -0.407959,-4.93983 -0.408951,-5.47836 -0.01304,-7.08263 0.709186,-2.87383 2.250268,-4.62786 5.209476,-5.92933 1.370452,-0.60273 3.459284,-0.97381 7.433466,-1.32056 3.88611,-0.33906 5.41788,-1.22716 7.129652,-4.13364 1.07282,-1.82159 2.594631,-3.66936 3.782671,-4.59291 l 1.143265,-0.88873 -0.501176,-1.49252 c -0.746483,-2.22303 -0.8991,-6.63001 -0.356841,-10.30413 1.490347,-10.09799 7.239356,-24.57418 13.995653,-35.2415 2.11741,-3.34312 5.748409,-8.29359 9.412038,-12.83229 6.29893,-7.80345 8.813549,-12.55517 10.317345,-19.49603 1.069578,-4.936714 1.149003,-8.38425 0.529174,-22.969596 -0.477617,-11.238984 -0.521247,-14.096968 -0.274648,-17.991666 0.603772,-9.535718 2.883562,-15.557727 7.91709,-20.91278 3.815895,-4.059644 8.171505,-6.772681 13.952516,-8.690792 7.177269,-2.381382 13.639673,-2.897518 21.695823,-1.732791 11.92283,1.723754 20.73097,7.48188 25.61519,16.745344 3.25246,6.168646 4.44156,12.834469 4.93919,27.687893 0.66359,19.807292 1.08138,22.699908 4.25246,29.442318 2.22477,4.73037 4.4757,7.92187 11.23786,15.93372 6.64355,7.87131 9.56772,12.04845 13.40069,19.14272 3.98595,7.37742 6.99563,15.99201 8.28825,23.72347 0.59781,3.57561 0.79796,9.88463 0.41956,13.22548 -0.32771,2.89339 -1.34675,7.22191 -2.01608,8.56362 -0.51657,1.0355 -0.49653,1.14139 0.25151,1.32914 0.97599,0.24496 3.5505,2.73965 4.24821,4.11651 0.84464,1.66682 1.19631,3.79091 1.20401,7.27213 0.0116,5.26873 0.79934,7.14633 4.44738,10.60089 5.58662,5.29031 6.55595,6.33889 7.33762,7.9375 0.6657,1.36143 0.77491,1.88892 0.76696,3.70416 -0.0115,2.62843 -0.72974,4.3395 -2.74583,6.54164 -1.97569,2.158 -4.37955,3.65128 -10.44575,6.48892 -8.18578,3.82912 -11.06101,5.67435 -19.52228,12.52876 -2.08415,1.68836 -4.69627,3.68488 -5.8047,4.43672 -5.16871,3.50585 -11.2504,4.90978 -16.77009,3.87129 z"
       id="path1014"
       class="UnoptimicedTransforms"
       style="fill:#ffffff"
       transform="matrix(3.7795276,0,0,3.7795276,-316.01844,-413.69521)" /><path
       style="fill:#000000;stroke-width:0.264583"
       d="m 141.14442,254.42536 c -6.05909,-1.13997 -11.018,-4.87508 -13.76186,-10.3656 l -0.94866,-1.89828 -2.8312,-0.66805 c -5.60613,-1.32282 -14.43974,-1.86288 -24.130153,-1.47524 -12.804386,0.51221 -16.412233,1.40483 -19.539158,4.83424 -4.15879,4.56109 -7.143933,6.72492 -10.887924,7.89231 -1.666396,0.51959 -2.535537,0.61659 -5.423958,0.60537 -5.265415,-0.0205 -7.819273,-0.79099 -17.065624,-5.14896 -7.30862,-3.44468 -8.927989,-3.94713 -16.139583,-5.00773 -12.402859,-1.82409 -16.96576,-3.28715 -20.249101,-6.49272 -3.8650783,-3.77352 -4.2835142,-8.6613 -1.2789695,-14.93976 2.3807475,-4.97496 2.5151475,-6.10901 1.7795665,-15.01591 -0.407959,-4.93983 -0.408951,-5.47836 -0.01304,-7.08263 0.709186,-2.87383 2.250268,-4.62786 5.209476,-5.92933 1.370452,-0.60273 3.459284,-0.97381 7.433466,-1.32056 3.88611,-0.33906 5.41788,-1.22716 7.129652,-4.13364 1.07282,-1.82159 2.594631,-3.66936 3.782671,-4.59291 l 1.143265,-0.88873 -0.501176,-1.49252 c -0.746483,-2.22303 -0.8991,-6.63001 -0.356841,-10.30413 1.490347,-10.09799 7.239356,-24.57418 13.995653,-35.2415 2.11741,-3.34312 5.748409,-8.29359 9.412038,-12.83229 6.29893,-7.80345 8.813549,-12.55517 10.317345,-19.49603 1.069578,-4.936714 1.149003,-8.38425 0.529174,-22.969596 -0.477617,-11.238984 -0.521247,-14.096968 -0.274648,-17.991666 0.603772,-9.535718 2.883562,-15.557727 7.91709,-20.91278 3.815895,-4.059644 8.171505,-6.772681 13.952516,-8.690792 7.177269,-2.381382 13.639673,-2.897518 21.695823,-1.732791 11.92283,1.723754 20.73097,7.48188 25.61519,16.745344 3.25246,6.168646 4.44156,12.834469 4.93919,27.687893 0.66359,19.807292 1.08138,22.699908 4.25246,29.442318 2.22477,4.73037 4.4757,7.92187 11.23786,15.93372 6.64355,7.87131 9.56772,12.04845 13.40069,19.14272 3.98595,7.37742 6.99563,15.99201 8.28825,23.72347 0.59781,3.57561 0.79796,9.88463 0.41956,13.22548 -0.32771,2.89339 -1.34675,7.22191 -2.01608,8.56362 -0.51657,1.0355 -0.49653,1.14139 0.25151,1.32914 0.97599,0.24496 3.5505,2.73965 4.24821,4.11651 0.84464,1.66682 1.19631,3.79091 1.20401,7.27213 0.0116,5.26873 0.79934,7.14633 4.44738,10.60089 5.58662,5.29031 6.55595,6.33889 7.33762,7.9375 0.6657,1.36143 0.77491,1.88892 0.76696,3.70416 -0.0115,2.62843 -0.72974,4.3395 -2.74583,6.54164 -1.97569,2.158 -4.37955,3.65128 -10.44575,6.48892 -8.18578,3.82912 -11.06101,5.67435 -19.52228,12.52876 -2.08415,1.68836 -4.69627,3.68488 -5.8047,4.43672 -5.16871,3.50585 -11.2504,4.90978 -16.77009,3.87129 z m 7.75419,-4.92964 c 3.32041,-0.79898 6.74391,-2.85623 13.80935,-8.29835 6.9248,-5.33378 11.00148,-7.85455 18.34885,-11.34578 3.65245,-1.73553 6.88156,-3.66105 8.19923,-4.88921 1.79047,-1.66885 2.58383,-4.05592 2.03072,-6.11004 -0.35299,-1.3109 -2.47061,-3.56495 -6.42839,-6.84257 -4.78578,-3.96333 -6.26838,-7.26046 -6.27341,-13.9514 -0.003,-3.36779 -0.56306,-4.69222 -2.38325,-5.63123 -1.01196,-0.52205 -1.4884,-0.59842 -3.175,-0.5089 -2.48313,0.13179 -3.27631,0.51067 -6.23203,2.97684 -4.05863,3.38642 -7.60265,4.89561 -11.4845,4.89058 -2.48845,-0.003 -4.24022,-0.74602 -5.65362,-2.39726 -1.36829,-1.59853 -1.80787,-3.21123 -1.9621,-7.19837 -0.15743,-4.06993 -0.22492,-4.16012 -3.11327,-4.16012 -2.44113,0 -3.90744,0.70721 -5.06857,2.44459 -1.20966,1.81 -1.62313,4.07921 -2.07114,11.36688 -0.58263,9.47739 -1.28542,15.48682 -2.68578,22.96561 -2.07513,11.08244 -2.44131,14.32921 -1.95456,17.33021 0.76459,4.71384 3.92974,8.12802 8.60786,9.28508 1.69381,0.41894 5.88305,0.46002 7.48961,0.0734 z m -81.440645,-1.34355 c 3.548681,-0.82869 6.451115,-3.07842 7.963069,-6.17233 0.879496,-1.79972 0.900329,-1.91968 0.894299,-5.14993 -0.0066,-3.5556 -0.31615,-4.96532 -1.971548,-8.9797 -1.693481,-4.10674 -11.672556,-21.2174 -17.548187,-30.08908 -3.887295,-5.86946 -6.378207,-9.00672 -8.530674,-10.74421 -2.418762,-1.95244 -3.61048,-2.44222 -5.942375,-2.44222 -3.235957,0 -4.776546,1.1843 -8.103142,6.22912 -2.902066,4.40102 -4.564067,5.341 -10.312047,5.83221 -4.866772,0.41591 -6.85142,1.1654 -7.932618,2.99572 -0.687618,1.16405 -0.773724,4.21309 -0.236043,8.35857 0.542962,4.18622 0.606616,8.37536 0.15277,10.05417 -0.17703,0.65484 -1.032279,2.68483 -1.900557,4.51108 -1.979689,4.1639 -2.377794,6.01227 -1.734484,8.05309 1.314003,4.16849 6.075278,6.39408 16.969247,7.93202 7.089822,1.0009 8.626282,1.29558 11.207199,2.14946 1.507294,0.49868 4.926798,1.91311 7.598899,3.14318 6.550107,3.01527 9.979205,4.17513 14.002234,4.73612 1.064247,0.14841 3.953338,-0.0739 5.423958,-0.41727 z m 37.801455,-19.93503 c 8.7654,-1.28011 15.18566,-4.07834 20.19096,-8.80008 4.06506,-3.83477 6.2731,-8.17206 7.2258,-14.1938 0.20817,-1.31577 0.56682,-4.77356 0.797,-7.68398 0.23018,-2.91041 0.5874,-6.10465 0.79381,-7.0983 1.0787,-5.1927 4.01689,-8.10701 9.02121,-8.94788 1.86999,-0.31422 1.92039,-0.34309 2.07953,-1.19137 0.64378,-3.43164 0.83439,-10.56762 0.39927,-14.94743 -1.02613,-10.32859 -3.77125,-18.86464 -11.91181,-37.04021 -4.61951,-10.31406 -7.84565,-18.34067 -9.15311,-22.77284 -0.22713,-0.76993 -0.44443,-1.43363 -0.48288,-1.47488 -0.10956,-0.11753 -4.07091,2.38258 -9.16054,5.78145 -7.4137,4.95089 -10.59028,6.27902 -15.586113,6.51657 -3.5072,0.16677 -5.974019,-0.3226 -8.901822,-1.76597 -3.193787,-1.57449 -5.639545,-3.98798 -8.706688,-8.5918 -1.368237,-2.05374 -2.907149,-4.14062 -3.419805,-4.6375 l -0.932101,-0.90343 -0.0016,3.82221 c -0.0019,4.32138 -0.484656,8.05425 -1.469343,11.3583 -0.997587,3.34735 -1.488553,4.5276 -4.95473,11.91079 -4.522242,9.6327 -7.174695,15.51664 -8.706921,19.31459 -5.125463,12.70456 -7.339793,22.30359 -7.367534,31.93801 l -0.0105,3.64844 -1.113975,-1.21095 c -3.589959,-3.90254 -4.651425,-7.77633 -3.910468,-14.27125 0.773835,-6.78307 2.663709,-13.02225 7.001282,-23.11384 1.555867,-3.6198 2.778199,-6.6321 2.716297,-6.69401 -0.35288,-0.35288 -6.029867,10.79651 -7.725338,15.17227 -3.593877,9.27529 -5.181465,19.18014 -3.873206,24.16466 1.07941,4.11259 3.123221,6.52729 14.070194,16.62347 12.655222,11.67167 15.414916,14.76001 16.707323,18.69695 0.524378,1.59737 0.5558,1.96804 0.295603,3.48706 -0.330851,1.93149 -1.132316,3.17106 -2.736834,4.23288 -0.570309,0.37741 -1.036926,0.77662 -1.036926,0.88713 0,0.54279 3.353234,3.19007 5.570109,4.39745 4.934606,2.68753 9.650695,3.74225 16.885517,3.77632 2.883969,0.0136 5.643859,-0.13134 7.408329,-0.38903 z m 64.19698,-43.06871 c -0.57648,-1.37973 -2.30949,-3.19559 -3.9376,-4.12585 -1.26522,-0.72291 -3.91983,-1.71235 -6.38271,-2.37899 -1.76781,-0.47849 -1.77654,-0.49933 -1.06724,-2.54662 3.75747,-10.84526 1.84806,-24.20877 -5.1965,-36.36914 -2.58969,-4.47034 -6.34655,-9.50112 -7.8125,-10.46165 -0.60128,-0.39397 -0.71048,-0.39732 -1.07483,-0.033 -0.36435,0.36435 -0.29022,0.54331 0.72967,1.76145 2.06766,2.4696 6.09686,8.81398 7.8147,12.30504 4.88506,9.9276 6.07631,19.5303 3.67051,29.58789 -0.91466,3.82375 -0.99397,3.96216 -3.10888,5.42514 -1.91688,1.32599 -3.00579,2.32639 -2.77903,2.55315 0.0684,0.0684 0.77213,-0.13551 1.56382,-0.45316 1.17394,-0.47103 1.97626,-0.5778 4.34986,-0.57887 5.93927,-0.003 10.55999,2.14297 12.46234,5.78691 0.6219,1.19123 0.80671,1.3805 0.97784,1.00141 0.12814,-0.28383 0.0459,-0.86268 -0.20945,-1.47374 z m -66.31721,-72.81249 c 2.5841,-0.60917 5.79863,-2.35252 11.94377,-6.47755 1.23693,-0.83031 3.11692,-2.01919 4.17775,-2.64195 1.06084,-0.62277 2.3343,-1.60604 2.82992,-2.18506 0.89977,-1.05118 1.72588,-2.978336 1.721,-4.014746 -0.005,-0.995217 -1.21935,-3.177828 -2.32134,-4.171233 -1.5068,-1.358307 -2.01905,-1.58742 -7.81272,-3.494346 -2.92151,-0.961586 -6.81453,-2.487732 -9.06705,-3.554479 -4.679501,-2.216113 -5.824575,-2.535422 -8.480912,-2.364949 -1.794156,0.115144 -2.327593,0.293606 -5.214808,1.744623 -4.860747,2.44285 -8.731937,4.963133 -11.045726,7.191163 -1.133414,1.091406 -2.129483,2.233557 -2.213483,2.538113 -0.23131,0.838642 0.646538,1.752518 3.522657,3.667228 2.990712,1.990996 6.845318,3.874026 9.298466,4.542436 2.415463,0.65814 8.076321,0.6656 11.099956,0.0146 4.1291,-0.88897 8.0427,-2.52396 12.71254,-5.310924 3.21485,-1.918621 4.23495,-2.245064 5.14739,-1.647211 1.07785,0.706239 0.89238,1.638239 -0.61523,3.091378 -4.78584,4.612937 -17.20846,8.451847 -24.772781,7.655417 -3.457641,-0.36404 -7.456043,-1.46482 -8.402143,-2.31314 -0.94366,-0.84614 -0.691832,-0.10146 0.576369,1.70439 2.254128,3.20977 4.865806,5.11851 8.222649,6.00952 1.925013,0.51096 6.559286,0.51985 8.693726,0.0167 z M 80.985472,87.227094 82.209853,86.452576 81.46341,85.422141 c -1.19694,-1.652329 -1.690594,-3.459816 -1.680104,-6.151602 0.01365,-3.500046 1.161309,-5.825046 3.208936,-6.500823 2.060998,-0.680191 4.156051,0.590431 5.090183,3.087126 0.589516,1.575618 0.740794,4.841423 0.296093,6.392005 -0.135364,0.471983 -0.196866,0.85815 -0.136671,0.85815 0.0602,0 0.990862,-0.436137 2.06815,-0.969193 1.92868,-0.954336 1.96119,-0.987345 2.121043,-2.153594 0.642228,-4.685572 -0.976297,-10.760948 -3.525994,-13.235347 -1.607703,-1.560224 -3.020268,-2.163212 -5.060304,-2.160114 -3.01616,0.0046 -5.407816,1.629596 -6.988058,4.748051 -1.126434,2.222913 -1.547365,4.527645 -1.548498,8.47853 -0.0011,3.957326 0.285237,5.833134 1.44267,9.449832 l 0.780338,2.438371 1.114949,-0.850961 c 0.61322,-0.46803 1.665917,-1.199494 2.339329,-1.625478 z m 43.081318,0.311673 c 1.64692,-3.552306 1.99714,-5.297217 1.97814,-9.855728 -0.025,-5.996331 -1.02689,-9.016299 -3.97123,-11.970472 -2.22871,-2.236155 -3.54667,-2.799882 -6.60669,-2.825866 -2.25577,-0.01916 -2.51095,0.0374 -4.41697,0.978998 -4.82292,2.382565 -7.75429,8.245562 -7.55306,15.106821 l 0.0766,2.6124 2.60203,1.152525 2.60203,1.152525 -0.22078,-1.119092 c -0.37607,-1.906201 -0.24559,-5.497293 0.25246,-6.948304 1.66331,-4.845873 6.94683,-5.896018 9.62156,-1.912369 2.1253,3.16535 1.61054,8.852648 -1.09084,12.052236 -0.40449,0.479089 -0.69085,0.909402 -0.63636,0.956249 0.0545,0.04685 1.23016,0.579562 2.61261,1.183809 1.38244,0.60425 2.69213,1.213914 2.91041,1.354807 0.21828,0.140893 0.4939,0.257995 0.61248,0.260223 0.11858,0.0021 0.671,-0.978215 1.2276,-2.178762 z M 87.149166,78.262603 c 0.300691,-0.476694 -0.009,-1.250778 -0.576046,-1.439791 -0.466413,-0.155469 -0.824867,0.784717 -0.563388,1.477698 0.254678,0.674947 0.699104,0.660162 1.139434,-0.03791 z m 30.271304,-0.678929 c 0.11387,-0.801354 -0.28392,-1.190876 -0.98796,-0.967422 -0.61585,0.195466 -0.73299,0.916054 -0.23057,1.418468 0.48734,0.48735 1.11837,0.253773 1.21853,-0.451046 z"
       id="path525"
       class="UnoptimicedTransforms"
       transform="matrix(3.7795276,0,0,3.7795276,-316.01844,-413.69521)" /><path
       style="fill:#ffcc00;stroke:none;stroke-width:1.08092"
       d="M 34.83195,8.81378 C 29.62567,6.7599 25.64666,5.12377 19.55665,-0.65022 13.46664,-6.42422 5.26562,-16.33608 5.26562,-19.01606 c 0,-4.77211 9.42551,4.32754 21.19169,7.1686 30.02574,7.25 83.13072,-5.61207 104.50059,-25.31014 12.27343,-11.31325 6.04369,-18.09732 -9.04223,-9.84682 -37.40163,20.45495 -50.7641,27.13424 -77.54251,25.13384 0,0 -13.08433,0.17052 -19.34581,-1.44517 -5.46735,-1.41077 -15.39377,-7.06907 -15.39377,-7.06907 -20.79185,-9.54796 -32.4071,-18.52555 -32.4071,-23.42809 0,-7.61861 19.95285,-22.42421 48.63794,-37.07726 16.33372,-8.34366 17.13843,-8.36096 27.08757,-7.65498 8.03648,0.57026 12.43301,2.67916 25.35065,8.49994 8.85297,3.98922 24.61829,9.64635 35.03406,13.26656 11.8656,4.12412 19.38805,6.99168 24.54934,9.86096 5.16129,2.86929 7.96142,5.7403 10.38237,9.87134 4.34487,7.41394 6.39928,13.73207 1.47696,21.69656 -3.20799,5.19065 -43.5704,31.5791 -61.83937,40.79064 C 78.30534,10.28167 75.86789,11.893 59.40962,12.23914 44.96941,12.54284 41.02133,11.25549 34.83195,8.81378 Z"
       id="path671"
       sodipodi:nodetypes="ssssssssssssssssssss" /><path
       style="fill:#ffcc00;stroke:#0d1e28;stroke-width:1.08092"
       d="m -87.12639,524.94886 c -10.42703,-2.04665 -23.86444,-6.90019 -47.5513,-17.17537 -28.60989,-12.41075 -36.71825,-14.78969 -65.31191,-19.16215 -40.76346,-6.23342 -56.28628,-11.63214 -65.14105,-22.65554 -3.94651,-4.91305 -5.127,-6.50338 -5.10993,-15.01459 0.0167,-8.31989 1.62688,-11.50173 7.81885,-25.24909 6.68478,-14.8415 7.08661,-16.41581 7.11724,-27.88425 0.0178,-6.68507 -1.16544,-20.95987 -1.86492,-31.72178 -1.99114,-30.63505 0.66466,-32.92555 33.36279,-36.93494 20.96646,-2.57088 25.3434,-5.60017 43.27136,-29.94823 8.51848,-11.56901 14.20095,-15.02931 24.68093,-15.02931 14.50503,0 26.97292,10.17615 46.36953,37.84631 18.95312,27.0375 55.85943,88.58618 69.45303,115.82687 10.28741,20.61533 12.09166,27.10622 12.12322,43.61383 0.0249,13.04192 -0.31765,14.88645 -3.89498,20.97187 -5.08886,8.65667 -14.02864,16.22099 -23.13349,19.57421 -8.87011,3.26676 -23.65215,4.61786 -32.18937,2.94216 z"
       id="path673"
       sodipodi:nodetypes="sssssssssssssssss" /><path
       style="fill:#ffcc00;stroke:none;stroke-width:1.08092"
       d="m 222.0341,529.96161 c -14.9683,-2.34487 -26.19387,-10.35341 -32.65029,-23.83416 -5.648,-11.79282 -4.96829,-26.73978 0.84665,-59.96819 7.22233,-41.27063 9.7117,-60.33018 12.75863,-97.68505 1.60378,-19.66197 3.52386,-37.86319 4.26686,-40.44715 3.55226,-12.35391 11.97636,-18.71765 24.32762,-18.89625 8.69216,-0.12569 11.55113,1.7109 10.73943,17.42774 -0.3789,7.33654 1.97546,15.55984 3.1196,18.30178 5.46454,13.09588 16.81921,18.30913 33.89018,15.55993 10.76303,-1.73333 20.5411,-5.63482 35.83357,-18.15693 11.95041,-9.7855 13.38211,-9.47429 21.58331,-10.61948 8.48618,-1.18498 17.25814,2.50267 20.15747,8.24593 1.01482,2.01025 1.74376,10.40507 2.18071,18.62196 1.36271,25.62577 4.04407,28.10033 27.54542,51.07386 10.16083,9.93262 15.81009,15.79876 18.70643,20.24534 2.89633,4.44658 3.03973,7.47361 2.18886,11.72801 -1.2246,6.12298 -3.93518,11.64093 -10.22937,16.76576 -6.29419,5.12483 -16.61884,10.92901 -33.9653,19.76941 -27.33375,13.93029 -38.15414,20.60066 -66.09649,41.47316 -22.5517,16.84576 -35.22384,24.98779 -43.97864,28.07667 -7.70329,2.71788 -21.73147,3.80483 -31.22465,2.31766 z"
       id="path675"
       sodipodi:nodetypes="sssssssssssssssssssss" /></g></svg>
